<?xml version="1.0" encoding="UTF-8" standalone="no"?>
<!-- Created with Inkscape (http://www.inkscape.org/) -->

<svg
   xmlns:dc="http://purl.org/dc/elements/1.1/"
   xmlns:cc="http://creativecommons.org/ns#"
   xmlns:rdf="http://www.w3.org/1999/02/22-rdf-syntax-ns#"
   xmlns:svg="http://www.w3.org/2000/svg"
   xmlns="http://www.w3.org/2000/svg"
   xmlns:sodipodi="http://sodipodi.sourceforge.net/DTD/sodipodi-0.dtd"
   xmlns:inkscape="http://www.inkscape.org/namespaces/inkscape"
   width="117.09781mm"
   height="22.305803mm"
   viewBox="0 0 117.09781 22.305803"
   version="1.1"
   id="svg4554"
   inkscape:version="0.92.2 (5c3e80d, 2017-08-06)"
   sodipodi:docname="Logo_Aleksandar_Stajic.svg">
  <title
     id="title5115">Logo Aleksandar Stajic</title>
  <defs
     id="defs4548" />
  <sodipodi:namedview
     id="base"
     pagecolor="#ffffff"
     bordercolor="#666666"
     borderopacity="1.0"
     inkscape:pageopacity="0.0"
     inkscape:pageshadow="2"
     inkscape:zoom="0.35"
     inkscape:cx="-268.7128"
     inkscape:cy="-429.27587"
     inkscape:document-units="mm"
     inkscape:current-layer="layer1"
     showgrid="false"
     fit-margin-top="0"
     fit-margin-left="0"
     fit-margin-right="0"
     fit-margin-bottom="0"
     inkscape:window-width="1920"
     inkscape:window-height="1145"
     inkscape:window-x="1920"
     inkscape:window-y="27"
     inkscape:window-maximized="1" />
  <metadata
     id="metadata4551">
    <rdf:RDF>
      <cc:Work
         rdf:about="">
        <dc:format>image/svg+xml</dc:format>
        <dc:type
           rdf:resource="http://purl.org/dc/dcmitype/StillImage" />
        <dc:title>Logo Aleksandar Stajic</dc:title>
        <dc:date>2017-11-23</dc:date>
        <dc:creator>
          <cc:Agent>
            <dc:title>Aleksandar Stajic</dc:title>
          </cc:Agent>
        </dc:creator>
        <dc:rights>
          <cc:Agent>
            <dc:title>Aleksandar Stajic</dc:title>
          </cc:Agent>
        </dc:rights>
        <dc:publisher>
          <cc:Agent>
            <dc:title>Aleksandar Stajic</dc:title>
          </cc:Agent>
        </dc:publisher>
        <dc:identifier>Aleksandar Stajic</dc:identifier>
        <dc:source>Aleksandar Stajic</dc:source>
        <dc:relation>Aleksandar Stajic</dc:relation>
        <dc:language>English</dc:language>
        <dc:subject>
          <rdf:Bag>
            <rdf:li>Aleksandar Stajic</rdf:li>
            <rdf:li>IT</rdf:li>
            <rdf:li>Developer</rdf:li>
          </rdf:Bag>
        </dc:subject>
        <dc:coverage>Aleksandar Stajic</dc:coverage>
        <dc:description>Aleksandar Stajic - software developer, frontend developer, backend developer</dc:description>
        <dc:contributor>
          <cc:Agent>
            <dc:title>Aleksandar Stajic</dc:title>
          </cc:Agent>
        </dc:contributor>
      </cc:Work>
    </rdf:RDF>
  </metadata>
  <g
     inkscape:label="Ebene 1"
     inkscape:groupmode="layer"
     id="layer1"
     transform="translate(-27.629668,-12.948289)">
    <path
       d="m 123.69884,12.948289 c 3.07391,0 5.83737,1.330378 7.74684,3.446357 -1.8189,-1.543368 -4.173,-2.474807 -6.7447,-2.474807 -5.76064,0 -10.43239,4.671721 -10.43239,10.432388 0,2.686712 1.01658,5.136277 2.68552,6.985794 -2.25547,-1.913758 -3.68766,-4.7684 -3.68766,-7.95737 0,-5.760641 4.67175,-10.432362 10.43239,-10.432362 z"
       style="fill:#0080ab;fill-rule:evenodd;stroke-width:0.26458332"
       id="path4504"
       inkscape:connector-curvature="0" />
    <path
       d="m 133.15677,22.82783 c 3.41363,0.585762 5.62674,1.524662 5.62674,2.582889 0,1.081591 -2.31148,2.03843 -5.85404,2.621042 -1.20534,3.275251 -4.35343,5.612104 -8.04641,5.612104 -3.69297,0 -6.84106,-2.336853 -8.0464,-5.612104 -3.54256,-0.582612 -5.85404,-1.539451 -5.85404,-2.621042 0,-1.058227 2.21311,-1.997127 5.62674,-2.582889 0.98671,-3.644714 4.31726,-6.326901 8.2737,-6.326901 3.95645,0 7.287,2.682187 8.27371,6.326901 z m 0.0613,0.239739 c 0.15436,0.643123 0.23651,1.31445 0.23651,2.004828 0,0.440743 -0.0334,0.873601 -0.0977,1.296432 1.8642,-0.431192 3.0018,-1.004888 3.0018,-1.634781 0,-0.645372 -1.19425,-1.231927 -3.14066,-1.666479 z m -16.80877,3.30126 c -0.0642,-0.422831 -0.0977,-0.855689 -0.0977,-1.296432 0,-0.690378 0.0821,-1.361705 0.23651,-2.004828 -1.94641,0.434552 -3.14066,1.021107 -3.14066,1.666479 0,0.629893 1.1376,1.203589 3.0018,1.634781 z"
       style="fill:#b2dee8;fill-rule:evenodd;stroke-width:0.26458332"
       id="path4506"
       inkscape:connector-curvature="0" />
    <path
       d="m 144.72748,28.612416 c -2.88031,1.528233 -9.84708,2.606622 -17.98349,2.606622 -10.71174,0 -19.39862,-1.868646 -19.39862,-4.172929 0,-1.081802 1.91471,-2.067639 5.05447,-2.809134 -1.71299,0.62693 -2.69894,1.360911 -2.69894,2.145321 0,2.304309 8.50038,4.172955 18.98214,4.172955 6.75092,0 12.67902,-0.775388 16.04444,-1.942835 z"
       style="fill:#0080ab;fill-rule:evenodd;stroke-width:0.26458332"
       id="path4508"
       inkscape:connector-curvature="0" />
    <g
       id="g4525"
       transform="matrix(0.26458333,0,0,0.26458333,6.3851608,-15.527783)">
      <path
         id="path4510"
         style="fill:#0080ab;fill-rule:evenodd"
         d="m 102.0237,136.1496 c 0,0.1948 0.1004,0.3653 0.3017,0.5114 0.2012,0.1462 0.436,0.2192 0.7043,0.2192 h 4.2251 c 0.2683,0 0.5031,-0.073 0.7042,-0.2192 0.2012,-0.1461 0.3019,-0.3166 0.3019,-0.5114 v -8.0367 c 0,-0.9985 -0.1258,-1.8265 -0.3773,-2.484 -0.2515,-0.6576 -0.6539,-1.1873 -1.2072,-1.5891 -0.5532,-0.4019 -1.291,-0.6881 -2.2133,-0.8585 -0.9222,-0.1705 -2.037,-0.2557 -3.3449,-0.2557 H 82.1048 c -0.2681,0 -0.5029,0.067 -0.7041,0.201 -0.2011,0.1338 -0.3018,0.2983 -0.3018,0.4931 v 1.6804 c 0,0.2191 0.0922,0.4018 0.2767,0.5479 0.1843,0.1462 0.4276,0.2192 0.7292,0.2192 h 18.7619 c 0.4694,0 0.7797,0.073 0.9307,0.2192 0.1508,0.1461 0.2263,0.4384 0.2263,0.8767 0,4.9516 0,4.75 0,8.9865 z m -5.4719,-5.6257 h -9.1151 c -1.3078,0 -2.4228,0.0853 -3.345,0.2558 -0.9221,0.1704 -1.6599,0.4566 -2.2131,0.8584 -0.5533,0.4018 -0.9558,0.9315 -1.2072,1.5891 -0.2515,0.6575 -0.3772,1.4855 -0.3772,2.4841 v 2.411 c 0,0.9984 0.1257,1.8265 0.3772,2.484 0.2514,0.6576 0.6539,1.1872 1.2072,1.589 0.5532,0.4019 1.291,0.6881 2.2131,0.8586 0.9222,0.1705 2.0372,0.2556 3.345,0.2556 h 19.9187 c 0.2683,0 0.503,-0.073 0.7043,-0.2191 0.2012,-0.1462 0.3018,-0.3166 0.3018,-0.5115 v -1.6803 c 0,-0.1949 -0.1006,-0.3654 -0.3018,-0.5115 -0.2013,-0.1461 -0.436,-0.2192 -0.7043,-0.2192 H 87.6881 c -0.4695,0 -0.7795,-0.0731 -0.9304,-0.2191 -0.151,-0.1462 -0.2263,-0.4628 -0.2263,-0.9498 v -4.1645 c 0,-0.4871 0.0753,-0.8037 0.2263,-0.9498 0.1509,-0.1461 0.4609,-0.2192 0.9304,-0.2192 h 8.8637 z m 148.3766,5.6257 c 0,0.1948 0.1005,0.3653 0.3018,0.5114 0.2012,0.1462 0.436,0.2192 0.7043,0.2192 h 4.2251 c 0.2683,0 0.5031,-0.073 0.7041,-0.2192 0.2012,-0.1461 0.3019,-0.3166 0.3019,-0.5114 v -8.0367 c 0,-0.9985 -0.1257,-1.8265 -0.3772,-2.484 -0.2515,-0.6576 -0.6539,-1.1873 -1.2072,-1.5891 -0.5532,-0.4019 -1.291,-0.6881 -2.2133,-0.8585 -0.9222,-0.1705 -2.037,-0.2557 -3.3449,-0.2557 h -19.0134 c -0.2682,0 -0.503,0.067 -0.7041,0.201 -0.2011,0.1338 -0.3018,0.2983 -0.3018,0.4931 v 1.6804 c 0,0.2191 0.0922,0.4018 0.2766,0.5479 0.1844,0.1462 0.4276,0.2192 0.7293,0.2192 h 18.7619 c 0.4694,0 0.7797,0.073 0.9306,0.2192 0.1509,0.1461 0.2263,0.4384 0.2263,0.8767 0,4.9516 0,4.75 0,8.9865 z m -5.4718,-5.6257 h -9.1151 c -1.3078,0 -2.4229,0.0853 -3.345,0.2558 -0.9221,0.1704 -1.6599,0.4566 -2.2131,0.8584 -0.5533,0.4018 -0.9558,0.9315 -1.2072,1.5891 -0.2516,0.6575 -0.3773,1.4855 -0.3773,2.4841 v 2.411 c 0,0.9984 0.1257,1.8265 0.3773,2.484 0.2514,0.6576 0.6539,1.1872 1.2072,1.589 0.5532,0.4019 1.291,0.6881 2.2131,0.8586 0.9221,0.1705 2.0372,0.2556 3.345,0.2556 h 19.9187 c 0.2683,0 0.503,-0.073 0.7043,-0.2191 0.2011,-0.1462 0.3017,-0.3166 0.3017,-0.5115 v -1.6803 c 0,-0.1949 -0.1006,-0.3654 -0.3017,-0.5115 -0.2013,-0.1461 -0.436,-0.2192 -0.7043,-0.2192 h -19.6673 c -0.4695,0 -0.7795,-0.0731 -0.9305,-0.2191 -0.1509,-0.1462 -0.2263,-0.4628 -0.2263,-0.9498 v -4.1645 c 0,-0.4871 0.0754,-0.8037 0.2263,-0.9498 0.151,-0.1461 0.461,-0.2192 0.9305,-0.2192 h 8.8637 z m -84.036,46.905 c 0,0.1949 0.1005,0.3653 0.3018,0.5115 0.2011,0.1461 0.4359,0.2191 0.7042,0.2191 h 4.2251 c 0.2683,0 0.5031,-0.073 0.7042,-0.2191 0.2012,-0.1462 0.3019,-0.3166 0.3019,-0.5115 v -8.0367 c 0,-0.9984 -0.1257,-1.8265 -0.3773,-2.484 -0.2515,-0.6576 -0.6539,-1.1872 -1.2072,-1.589 -0.5532,-0.402 -1.2909,-0.6881 -2.2133,-0.8586 -0.9221,-0.1705 -2.0369,-0.2557 -3.3449,-0.2557 h -19.0133 c -0.2682,0 -0.503,0.067 -0.7042,0.201 -0.2011,0.1339 -0.3018,0.2983 -0.3018,0.4931 v 1.6804 c 0,0.2192 0.0922,0.4018 0.2767,0.548 0.1843,0.1461 0.4276,0.2191 0.7293,0.2191 h 18.7618 c 0.4695,0 0.7797,0.0731 0.9307,0.2192 0.1508,0.1461 0.2263,0.4384 0.2263,0.8768 0,4.9516 0,4.7499 0,8.9864 z m -5.4719,-5.6257 h -9.1151 c -1.3078,0 -2.4228,0.0853 -3.345,0.2558 -0.9221,0.1705 -1.6598,0.4566 -2.213,0.8584 -0.5534,0.4019 -0.9558,0.9315 -1.2073,1.5891 -0.2515,0.6576 -0.3772,1.4856 -0.3772,2.4841 v 2.411 c 0,0.9985 0.1257,1.8265 0.3772,2.484 0.2515,0.6576 0.6539,1.1873 1.2073,1.5891 0.5532,0.4019 1.2909,0.688 2.213,0.8585 0.9222,0.1705 2.0372,0.2557 3.345,0.2557 h 19.9187 c 0.2683,0 0.503,-0.073 0.7043,-0.2192 0.2012,-0.1461 0.3018,-0.3166 0.3018,-0.5114 v -1.6804 c 0,-0.1948 -0.1006,-0.3653 -0.3018,-0.5115 -0.2013,-0.1461 -0.436,-0.2191 -0.7043,-0.2191 H 141.085 c -0.4694,0 -0.7795,-0.0731 -0.9304,-0.2192 -0.151,-0.1461 -0.2263,-0.4627 -0.2263,-0.9497 v -4.1645 c 0,-0.4872 0.0753,-0.8038 0.2263,-0.9498 0.1509,-0.1462 0.461,-0.2193 0.9304,-0.2193 h 8.8637 z m -30.3201,-59.0696 c 0,-0.1949 -0.1007,-0.3897 -0.3019,-0.5845 -0.201,-0.1948 -0.4358,-0.2922 -0.7041,-0.2922 h -4.2755 c -0.2683,0 -0.5029,0.0974 -0.7042,0.2922 -0.2012,0.1948 -0.3018,0.3896 -0.3018,0.5845 0,10.19 -0.009,20.3893 -0.009,30.5669 l 6.2968,-0.0179 c 0,-10.1821 -7e-4,-20.3659 -7e-4,-30.549 z m 32.5943,20.9319 c 0.2683,0 0.503,-0.073 0.7043,-0.2192 0.2011,-0.1461 0.3018,-0.3165 0.3018,-0.5114 v -4.822 c 0,-0.9985 -0.1258,-1.8265 -0.3773,-2.484 -0.2515,-0.6576 -0.654,-1.1873 -1.2072,-1.5891 -0.5533,-0.4019 -1.2911,-0.6881 -2.2133,-0.8585 -0.922,-0.1705 -2.0371,-0.2557 -3.3448,-0.2557 h -14.2349 c -1.3078,0 -2.4228,0.0852 -3.345,0.2557 -0.9221,0.1704 -1.6599,0.4566 -2.2131,0.8585 -0.5533,0.4018 -0.9558,0.9315 -1.2072,1.5891 -0.0527,0.1376 -0.1,0.283 -0.1417,0.4356 h 7.7064 v 0.003 h 13.184 c 0.4694,0 0.7795,0.073 0.9306,0.2192 0.1507,0.1461 0.2262,0.4627 0.2262,0.9497 v 3.2878 h -11.8205 c -0.2682,0 -0.503,0.0731 -0.7041,0.2192 -0.2012,0.1461 -0.3019,0.3166 -0.3019,0.5114 v 1.6804 c 0,0.1949 0.1007,0.3653 0.3019,0.5114 0.2011,0.1462 0.4359,0.2192 0.7041,0.2192 z m 11.4181,9.644 c 0.2682,0 0.503,-0.073 0.7041,-0.2191 0.2012,-0.1462 0.3019,-0.3166 0.3019,-0.5115 0,-9.9482 0.0254,-19.8048 0.0502,-29.8087 0,-0.1948 -0.1007,-0.3958 -0.3017,-0.6028 -0.2012,-0.207 -0.436,-0.3105 -0.7043,-0.3105 h -4.2755 c -0.2683,0 -0.5029,0.1035 -0.7041,0.3105 -0.2013,0.207 -0.3018,0.408 -0.3018,0.6028 v 27.4343 h -5.7234 c -0.0987,-0.0246 -0.2027,-0.0366 -0.3126,-0.0366 h -20.2709 c -0.4694,0 -0.7795,-0.0731 -0.9304,-0.2191 -0.151,-0.1462 -0.2263,-0.4628 -0.2263,-0.9498 v -9.8519 h -6.2372 v 8.9752 c 0,0.9984 0.1257,1.8265 0.3772,2.484 0.2514,0.6576 0.6539,1.1872 1.2072,1.589 0.5532,0.4019 1.291,0.6881 2.2131,0.8586 0.9222,0.1705 2.0372,0.2556 3.345,0.2556 h 19.6589 c 0.0979,0.0242 0.2011,0.0366 0.3101,0.0366 z m 3.2963,-7.1597 2.6892,-1.6177 0.3957,-0.2166 10.0134,-6.1501 -7e-4,0.005 6.2911,-3.8936 c 0.2348,-0.0974 0.3858,-0.2192 0.4529,-0.3653 0.067,-0.1461 0.0754,-0.2922 0.0251,-0.4383 -0.0503,-0.1462 -0.1592,-0.274 -0.3269,-0.3837 -0.1678,-0.1095 -0.3858,-0.1643 -0.654,-0.1643 h -5.2311 l -13.6547,8.603 z m 5.6582,0.2543 8.1473,6.6132 c 0.0671,0.0487 0.1845,0.1035 0.3522,0.1644 0.1676,0.0609 0.3018,0.0913 0.4023,0.0913 h 5.6337 c 0.4694,0 0.788,-0.1339 0.9556,-0.4018 0.1677,-0.2679 0.1007,-0.5358 -0.2011,-0.8037 l -10.7383,-8.6952 z m 25.903,-5.5879 c -0.4694,0 -0.7795,-0.0731 -0.9304,-0.2192 -0.151,-0.1461 -0.2263,-0.4628 -0.2263,-0.9498 v -2.4476 c 0,-0.487 0.0753,-0.8036 0.2263,-0.9497 0.1509,-0.1462 0.461,-0.2192 0.9304,-0.2192 l 19.2295,-0.0262 v -3.1154 h -19.4809 c -1.3078,0 -2.4228,0.0852 -3.345,0.2557 -0.9221,0.1704 -1.6598,0.4566 -2.213,0.8584 -0.5534,0.4019 -0.9558,0.9316 -1.2073,1.5891 -0.2515,0.6576 -0.3772,1.4856 -0.3772,2.4841 v 2.0092 c 0,0.9984 0.1257,1.8265 0.3772,2.484 0.2515,0.6576 0.6539,1.1872 1.2073,1.5891 0.5532,0.4018 1.2909,0.688 2.213,0.8585 0.9222,0.1705 2.0372,0.2556 3.345,0.2556 h 12.7762 c 0.4695,0 0.7795,0.0732 0.9306,0.2192 0.1509,0.1461 0.2262,0.4628 0.2262,0.9499 v 2.5571 c 0,0.487 -0.0753,0.8036 -0.2262,0.9498 -0.1511,0.146 -0.4611,0.2191 -0.9306,0.2191 h -18.8122 c -0.2683,0 -0.5031,0.0731 -0.7042,0.2192 -0.2011,0.1461 -0.3018,0.3166 -0.3018,0.5115 v 1.6803 c 0,0.1949 0.1007,0.3653 0.3018,0.5115 0.2011,0.1461 0.4359,0.2191 0.7042,0.2191 h 19.114 c 2.4814,0 4.2167,-0.3104 5.206,-0.9315 0.9892,-0.621 1.4838,-1.5281 1.4838,-2.7215 v -3.6531 c 0,-0.9984 -0.1257,-1.8265 -0.3773,-2.484 -0.2515,-0.6576 -0.6538,-1.1872 -1.2071,-1.589 -0.5534,-0.4019 -1.2909,-0.6881 -2.2131,-0.8586 -0.9223,-0.1705 -2.0373,-0.2556 -3.345,-0.2556 z m 86.1135,-2.8495 c 0,-0.9984 -0.1258,-1.8203 -0.3772,-2.4658 -0.2516,-0.6453 -0.6539,-1.1628 -1.2072,-1.5524 -0.5534,-0.3898 -1.2911,-0.6576 -2.2132,-0.8037 -0.9222,-0.1462 -2.0372,-0.2192 -3.3449,-0.2192 h -20.2206 c -0.2683,0 -0.503,0.0913 -0.7042,0.274 -0.2013,0.1826 -0.3017,0.3713 -0.3017,0.5662 0,6.5247 0.005,13.0483 0.005,19.5671 l 5.2768,-0.0234 c 0.2682,-0.001 0.5031,-0.073 0.7042,-0.2191 0.2011,-0.146 0.3018,-0.3166 0.3018,-0.5115 v -16.5117 h 14.6876 c 0.4694,0 0.7797,0.073 0.9304,0.2192 0.1511,0.1461 0.2265,0.4627 0.2265,0.9497 v 15.3793 c 0,0.1949 0.1006,0.3653 0.3018,0.5115 0.2012,0.146 0.4358,0.2192 0.7041,0.2192 h 5.1868 c 0,-5.124 0.0233,-10.2487 0.0444,-15.3794 z m 26.7595,-15.1965 v 9.5354 h 0.005 v 4.6995 h -0.005 v 9.1445 c 0,0.1948 0.1005,0.3653 0.3018,0.5114 0.2012,0.1462 0.436,0.2192 0.7042,0.2192 h 4.2755 c 0.2682,0 0.503,-0.073 0.7042,-0.2192 0.201,-0.1461 0.3017,-0.3166 0.3017,-0.5114 v -23.3794 c 0,-0.1948 -0.1007,-0.3958 -0.3017,-0.6028 -0.2012,-0.207 -0.436,-0.3105 -0.7042,-0.3105 h -4.2755 c -0.2682,0 -0.503,0.1035 -0.7042,0.3105 -0.2013,0.207 -0.3018,0.408 -0.3018,0.6028 z m -5.4534,10.1189 h -9.1336 c -1.3078,0 -2.4228,0.0852 -3.345,0.2557 -0.9221,0.1704 -1.6598,0.4566 -2.213,0.8584 -0.5533,0.4019 -0.9558,0.9316 -1.2072,1.5891 -0.2516,0.6576 -0.3773,1.4856 -0.3773,2.4841 v 10.0094 c 0,0.9984 0.1257,1.8264 0.3773,2.484 0.2514,0.6576 0.6539,1.1872 1.2072,1.589 0.5532,0.4018 1.2909,0.688 2.213,0.8585 0.9222,0.1704 2.0372,0.2557 3.345,0.2557 h 19.6672 c 0.2683,0 0.5031,-0.0731 0.7043,-0.2191 0.2012,-0.1462 0.3018,-0.3167 0.3018,-0.5115 v -1.6804 c 0,-0.1948 -0.1006,-0.3653 -0.3018,-0.5114 -0.2012,-0.1461 -0.436,-0.2192 -0.7043,-0.2192 H 297.036 c -0.4695,0 -0.7795,-0.0731 -0.9305,-0.2192 -0.1509,-0.1461 -0.2263,-0.4627 -0.2263,-0.9498 v -11.7628 c 0,-0.487 0.0754,-0.8036 0.2263,-0.9497 0.151,-0.1462 0.461,-0.2192 0.9305,-0.2192 h 8.8821 z m 38.5004,13.2605 c 0,0.1948 0.1005,0.3653 0.3018,0.5114 0.2012,0.1462 0.436,0.2192 0.7043,0.2192 h 4.2251 c 0.2683,0 0.5031,-0.073 0.7041,-0.2192 0.2012,-0.1461 0.3019,-0.3166 0.3019,-0.5114 v -8.0367 c 0,-0.9985 -0.1257,-1.8265 -0.3772,-2.484 -0.2515,-0.6576 -0.6539,-1.1873 -1.2072,-1.5891 -0.5532,-0.4019 -1.291,-0.6881 -2.2133,-0.8585 -0.9222,-0.1705 -2.037,-0.2557 -3.3449,-0.2557 h -19.0134 c -0.2682,0 -0.503,0.067 -0.7041,0.201 -0.2011,0.1338 -0.3018,0.2983 -0.3018,0.4931 v 1.6804 c 0,0.2191 0.0922,0.4018 0.2766,0.5479 0.1844,0.1462 0.4276,0.2192 0.7293,0.2192 h 18.7619 c 0.4694,0 0.7797,0.073 0.9306,0.2192 0.1509,0.1461 0.2263,0.4384 0.2263,0.8767 v 2.1918 c 0,0.064 -0.002,0.1252 -0.004,0.1833 v 4.1273 h 0.004 z m 28.7212,-10.0824 c 0.2683,0 0.503,-0.067 0.7041,-0.201 0.2013,-0.1338 0.302,-0.2983 0.302,-0.4931 l 0.0502,-1.6804 c 0,-0.1948 -0.1007,-0.3713 -0.3018,-0.5296 -0.2011,-0.1583 -0.4359,-0.2375 -0.7042,-0.2375 h -16.3978 c -0.2682,0 -0.5029,0.073 -0.7041,0.2192 -0.2013,0.1461 -0.3018,0.3166 -0.3018,0.5114 v 16.4752 h -6.4385 c -0.109,0 -0.2121,0.0124 -0.31,0.0365 H 330.083 c -0.4695,0 -0.7795,-0.0731 -0.9305,-0.2191 -0.1509,-0.1462 -0.2263,-0.4628 -0.2263,-0.9498 v -4.1645 c 0,-0.4871 0.0754,-0.8037 0.2263,-0.9498 0.151,-0.1461 0.461,-0.2192 0.9305,-0.2192 h 8.8685 v -3.1416 h -9.1199 c -1.3078,0 -2.4229,0.0853 -3.345,0.2558 -0.9221,0.1704 -1.6599,0.4566 -2.2131,0.8584 -0.5533,0.4018 -0.9558,0.9315 -1.2072,1.5891 -0.2516,0.6575 -0.3773,1.4855 -0.3773,2.4841 v 2.411 c 0,0.9984 0.1257,1.8265 0.3773,2.484 0.2514,0.6576 0.6539,1.1872 1.2072,1.589 0.5532,0.4019 1.291,0.6881 2.2131,0.8586 0.9221,0.1705 2.0372,0.2556 3.345,0.2556 h 19.9187 c 0.1066,0 0.208,-0.0111 0.304,-0.0342 l 10.9632,0.0342 c 0.2683,0 0.503,-0.073 0.7041,-0.2191 0.2012,-0.1462 0.3019,-0.3166 0.3019,-0.5115 v -16.5117 z m -188.2722,54.1745 v -15.1235 c 0,-0.1948 -0.0922,-0.3896 -0.2767,-0.5845 -0.1845,-0.1949 -0.4107,-0.2923 -0.679,-0.2923 h -4.2755 c -0.2683,0 -0.503,0.0974 -0.7042,0.2923 -0.2013,0.1949 -0.3018,0.3897 -0.3018,0.5845 v 16.1464 c 0,0.3897 0.0587,0.7793 0.1759,1.169 0.1175,0.3896 0.3018,0.7427 0.5534,1.0594 0.2515,0.3166 0.5869,0.5783 1.006,0.7854 0.4192,0.207 0.9305,0.3105 1.5341,0.3105 h 2.9699 v -4.2773 c -0.001,-0.0234 -0.002,-0.0465 -0.002,-0.0699 z m 9.0799,4.3107 h 20.1945 c 0.2684,0 0.5031,-0.067 0.7043,-0.201 0.2011,-0.1338 0.3016,-0.2983 0.3016,-0.4931 v -1.717 c 0.0337,-0.2192 -0.0502,-0.4018 -0.2514,-0.548 -0.2011,-0.146 -0.4526,-0.2191 -0.7545,-0.2191 h -17.3031 c -0.2683,-0.0487 -0.436,-0.1584 -0.5029,-0.3288 -0.0671,-0.1704 -0.1006,-0.4384 -0.1006,-0.8037 V 168.552 c 0,-0.487 0.0753,-0.8036 0.2263,-0.9498 0.1509,-0.1461 0.461,-0.2192 0.9305,-0.2192 h 17.0517 c 0.2683,0 0.503,-0.073 0.704,-0.2191 0.2013,-0.1462 0.302,-0.3166 0.302,-0.5115 v -1.6803 c 0,-0.1949 -0.1007,-0.3653 -0.302,-0.5115 -0.201,-0.1461 -0.4357,-0.2192 -0.704,-0.2192 h -17.3032 c -1.3078,0 -2.4228,0.0852 -3.345,0.2557 -0.9221,0.1705 -1.6599,0.4566 -2.2131,0.8586 -0.5533,0.4018 -0.9557,0.9315 -1.2072,1.589 -0.2514,0.6575 -0.3856,1.4857 -0.3772,2.484 l 0.0886,10.5437 c 0.0247,2.9297 0.4074,4.58 3.8607,4.58 z m -20.3471,-19.5803 c 0,-0.1949 -0.1006,-0.3653 -0.3018,-0.5115 -0.2013,-0.1461 -0.4359,-0.2192 -0.7042,-0.2192 h -4.1748 c -0.2683,0 -0.5031,0.0731 -0.7043,0.2192 -0.2011,0.1462 -0.3017,0.3166 -0.3017,0.5115 v 22.6488 c 0,0.4871 -0.0755,0.8037 -0.2265,0.9497 -0.1508,0.1462 -0.4611,0.2193 -0.9305,0.2193 -1.8108,0 -3.2025,0 -4.1748,0 h -0.3178 v 3.1416 h 4.7441 c 1.3078,0 2.4145,-0.0853 3.3198,-0.2558 0.9054,-0.1705 1.6347,-0.4566 2.188,-0.8584 0.5535,-0.4018 0.9557,-0.9315 1.2073,-1.5891 0.2514,-0.6576 0.3772,-1.4855 0.3772,-2.484 z m -85.9122,7.1599 c -0.4695,0 -0.7795,-0.073 -0.9304,-0.2191 -0.151,-0.1462 -0.2263,-0.4628 -0.2263,-0.9498 v -2.4476 c 0,-0.487 0.0753,-0.8037 0.2263,-0.9498 0.1509,-0.1461 0.4609,-0.2197 0.9304,-0.2192 l 27.3633,0.0365 v 11.909 c 0,0.9496 0.025,1.7656 0.0753,2.4475 0.0504,0.6819 0.2934,1.2299 0.7294,1.6438 0.436,0.414 1.1401,0.7185 2.1126,0.9133 0.9724,0.1948 2.3809,0.2923 4.2252,0.2923 h 7.0923 c 0.2682,0 0.503,-0.0913 0.7042,-0.274 0.2013,-0.1826 0.3017,-0.3714 0.3017,-0.5663 v -1.6803 c 0,-0.1949 -0.1004,-0.3653 -0.3017,-0.5115 -0.2012,-0.1461 -0.436,-0.2191 -0.7042,-0.2191 h -6.8407 c -0.4696,0 -0.7798,-0.0731 -0.9306,-0.2192 -0.151,-0.1462 -0.2264,-0.4628 -0.2264,-0.9498 V 167.383 h 8.5701 v -3.1781 h -8.5198 v -10.4477 c -0.0671,-0.1218 -0.1929,-0.2496 -0.3772,-0.3836 -0.1845,-0.1338 -0.3773,-0.2008 -0.5785,-0.2008 h -4.3257 c -0.2683,0 -0.5031,0.0852 -0.7042,0.2556 -0.2013,0.1705 -0.3018,0.3532 -0.3018,0.548 v 10.2285 h -0.654 -3.5713 -23.3894 c -1.3078,0 -2.4228,0.0852 -3.345,0.2557 -0.9221,0.1705 -1.6599,0.4566 -2.2131,0.8585 -0.5533,0.4019 -0.9558,0.9315 -1.2072,1.589 -0.2515,0.6576 -0.3772,1.4857 -0.3772,2.4841 v 2.0092 c 0,0.9985 0.1257,1.8265 0.3772,2.484 0.2514,0.6576 0.6539,1.1873 1.2072,1.5892 0.5532,0.4018 1.291,0.6879 2.2131,0.8584 0.9222,0.1705 2.0372,0.2557 3.345,0.2557 h 12.7762 c 0.4694,0 0.7795,0.0731 0.9305,0.2191 0.151,0.1462 0.2262,0.4628 0.2262,0.9499 v 2.5572 c 0,0.487 -0.0752,0.8036 -0.2262,0.9497 -0.151,0.1461 -0.4611,0.2192 -0.9305,0.2192 H 81.4007 c -0.2683,0 -0.5031,0.073 -0.7042,0.2192 -0.2012,0.1461 -0.3019,0.3166 -0.3019,0.5114 v 1.6804 c 0,0.1948 0.1007,0.3653 0.3019,0.5114 0.2011,0.1462 0.4359,0.2192 0.7042,0.2192 h 19.114 c 2.4814,0 4.2167,-0.3105 5.206,-0.9316 0.9892,-0.6209 1.4838,-1.5281 1.4838,-2.7215 v -3.653 c 0,-0.9984 -0.1257,-1.8265 -0.3773,-2.484 -0.2515,-0.6576 -0.6538,-1.1872 -1.2071,-1.5891 -0.5534,-0.4019 -1.291,-0.688 -2.2132,-0.8585 -0.9223,-0.1705 -2.0373,-0.2557 -3.345,-0.2557 z"
         inkscape:connector-curvature="0" />
    </g>
  </g>
</svg>
